<svg xmlns="http://www.w3.org/2000/svg" viewBox="0 0 32 32">
  <rect width="32" height="32" rx="7" fill="#10b981"/>
  <g transform="translate(6.4,6.4) scale(0.8)" fill="none" stroke="#04130d" stroke-width="2.4" stroke-linecap="round" stroke-linejoin="round">
    <path d="M11 7a16 16 20 0 1 10.98 4.362"/>
    <path d="M12 12a13 13 0 0 1-8.66 5"/>
    <path d="M16.83 13.634a16 16 0 0 1-9.267 7.328"/>
    <path d="M20.66 17A13 13 0 0 0 12 12a13 13 0 0 1 0-10"/>
    <path d="M8.17 15.366a16 16 0 0 1-1.713-11.69"/>
    <circle cx="12" cy="12" r="10"/>
  </g>
</svg>
